<svg id="Layer_1" data-name="Layer 1" xmlns="http://www.w3.org/2000/svg" viewBox="0 0 1000 220">
    <defs>
        <style>.cls-1{fill:#fff;}.cls-2{fill:none;}.cls-3{opacity:0.21;}.cls-3,.cls-4{isolation:isolate;}.cls-4{opacity:0.1;}.cls-5{fill:#f1f2f2;}</style>
    </defs>
    <title>MediaKit</title>
    <g id="Group_4051" data-name="Group 4051">
        <path id="Path_2431" data-name="Path 2431" class="cls-1" d="M478.82,203.2,404.08,21.93a15.83,15.83,0,0,1-.92-5.15,14.29,14.29,0,0,1,3.67-10.1,12.88,12.88,0,0,1,9.92-3.85,13.34,13.34,0,0,1,7.72,2.57,16.27,16.27,0,0,1,5.32,6.79l71.07,177.42L571.93,12.19a16.27,16.27,0,0,1,5.32-6.79A13.34,13.34,0,0,1,585,2.83a12.86,12.86,0,0,1,9.91,3.85,14.25,14.25,0,0,1,3.68,10.1,16.31,16.31,0,0,1-.92,5.14L522.9,203.2c-4.21,9.37-10.47,14-18.74,14h-6.61C489.29,217.16,483.05,212.57,478.82,203.2Z" />
        <path id="Path_2432" data-name="Path 2432" class="cls-1" d="M630.33,211.65a13.28,13.28,0,0,1-3.86-9.74V18.25a14,14,0,0,1,3.86-9.91,12.73,12.73,0,0,1,9.73-4H761.44a12.09,12.09,0,0,1,9.19,3.85,12.39,12.39,0,0,1,3.85,9.19,11.66,11.66,0,0,1-3.85,9A13,13,0,0,1,761.44,30H654V96.87h96.6a12.09,12.09,0,0,1,9.18,3.86,12.6,12.6,0,0,1,3.85,9.18,11.66,11.66,0,0,1-3.85,9,12.88,12.88,0,0,1-9.18,3.67H654V189.8H761.44a12,12,0,0,1,9.18,3.86,12.33,12.33,0,0,1,3.86,9.18,11.64,11.64,0,0,1-3.86,9,12.93,12.93,0,0,1-9.18,3.67H640.06A12,12,0,0,1,630.33,211.65Z" />
        <path id="Path_2433" data-name="Path 2433" class="cls-1" d="M421,198.06,346.25,16.78C342,7.42,335.78,2.83,327.51,2.83h-6.62c-8.26,0-14.5,4.59-18.73,14l-32.5,79H245.05a13.5,13.5,0,0,0-13.41,13.41v.18a13.49,13.49,0,0,0,13.41,13.41h13.22l-31,75.3a15.81,15.81,0,0,0-.92,5.14,14.19,14.19,0,0,0,3.67,10.1,12.89,12.89,0,0,0,9.92,3.86,13.45,13.45,0,0,0,7.71-2.57,16.3,16.3,0,0,0,5.33-6.8l34.15-85h23.5A13.49,13.49,0,0,0,324,109.35V109a13.48,13.48,0,0,0-13.4-13.41H297.93l26.26-65.2,71.07,177.42a16.21,16.21,0,0,0,5.33,6.79,13.28,13.28,0,0,0,7.71,2.57,12.88,12.88,0,0,0,9.92-3.85,14.21,14.21,0,0,0,3.67-10.11A12.28,12.28,0,0,0,421,198.06Z" />
        <path id="Path_2434" data-name="Path 2434" class="cls-1" d="M197.67,198.06,122.94,16.78C118.7,7.42,112.46,2.83,104.2,2.83H97.59c-8.27,0-14.51,4.59-18.74,14l-32.5,79H21.74a13.49,13.49,0,0,0-13.4,13.41v.18a13.49,13.49,0,0,0,13.4,13.42H35l-31,75.3A15.81,15.81,0,0,0,3,203.2a14.17,14.17,0,0,0,3.67,10.1,12.89,12.89,0,0,0,9.92,3.86,13.43,13.43,0,0,0,7.71-2.57,16.3,16.3,0,0,0,5.33-6.8l34.16-85H87.49a13.49,13.49,0,0,0,13.4-13.41V109a13.48,13.48,0,0,0-13.4-13.41H74.81l26.08-65.21L172,207.79a16.46,16.46,0,0,0,5.33,6.8,13.48,13.48,0,0,0,7.72,2.57,12.92,12.92,0,0,0,9.92-3.86,14.29,14.29,0,0,0,3.67-10.1A12.22,12.22,0,0,0,197.67,198.06Z" />
    </g>
    <g id="Group_ghost" data-name="Group 4051">
      <path id="Path_7142" data-name="Path 7142" class="cls-1" d="M973.49,74.89a73.07,73.07,0,0,0-146.11,0c0,.18,0,.37,0,.55v1.13h0V208.66a8.13,8.13,0,0,0,16.25,0V185.05a8.12,8.12,0,1,1,16.24,0v11.2a8.12,8.12,0,1,0,16.24,0h0v-11.2a8.13,8.13,0,0,1,8.12-8.12h0a8.13,8.13,0,0,1,8.12,8.12v3.06a8.12,8.12,0,1,0,16.24,0v-3.06a8.13,8.13,0,0,1,16.25,0v11.2a8.12,8.12,0,1,0,16.24,0h0v-11.2a8.13,8.13,0,0,1,8.12-8.12h0a8.13,8.13,0,0,1,8.12,8.12v23.61a8.12,8.12,0,0,0,16.24,0V75.44C973.52,75.25,973.5,75.07,973.49,74.89Zm-100,11.69c-7.18,0-13-6.66-13-14.91s5.82-14.91,13-14.91,13,6.67,13,14.91-5.81,14.91-13,14.91Zm27.53,21c-6.52,0-11.8-3.88-11.8-8.67s5.28-1.9,11.8-1.9,11.8-2.89,11.8,1.9-5.28,8.67-11.8,8.67Zm26.36-21c-7.17,0-13-6.66-13-14.91s5.83-14.91,13-14.91,13,6.67,13,14.91-5.82,14.91-13,14.91Z" />
      <ellipse id="Ellipse_598" data-name="Ellipse 598" class="cls-2" cx="873.5" cy="71.67" rx="13" ry="14.91" />
      <path id="Path_7143" data-name="Path 7143" class="cls-2" d="M901,97.05c-6.51,0-11.8-2.89-11.8,1.9s5.29,8.67,11.8,8.67,11.8-3.89,11.8-8.67S907.55,97.05,901,97.05Z" />
      <ellipse id="Ellipse_599" data-name="Ellipse 599" class="cls-2" cx="927.39" cy="71.67" rx="13" ry="14.91" />
      <path id="Path_7148" data-name="Path 7148" class="cls-3" d="M860.49,71.67s.92-15.94,13-16,13,16,13,16-2.52-14.91-13-14.91C866,56.78,860.16,68.31,860.49,71.67Z" />
      <path id="Path_7149" data-name="Path 7149" class="cls-3" d="M914.39,71.67s.92-15.94,13-16,13,16,13,16-2.52-14.91-13-14.91C919.9,56.78,914.05,68.31,914.39,71.67Z" />
      <path id="Path_7150" data-name="Path 7150" class="cls-4" d="M873.5,53.77c-5.76,0-14.7,6.48-14.7,17.9a15.78,15.78,0,0,0,14.7,16.5c5.57,0,14-5.06,14-16.5S879.26,53.77,873.5,53.77Zm.19,32.56c-8.15.24-13-8.87-13-15.51A13.09,13.09,0,0,1,873.46,57.4h.23c8.1,0,11.6,6.78,11.6,13.42S881.85,86.1,873.69,86.33Z" />
      <path id="Path_7151" data-name="Path 7151" class="cls-4" d="M927.86,53.77c-5.76,0-14.69,6.48-14.69,17.9a15.77,15.77,0,0,0,14.69,16.5c5.58,0,14-5.06,14-16.5S933.62,53.77,927.86,53.77Zm.2,32.56c-8.16.24-13-8.87-13-15.51A13.1,13.1,0,0,1,927.83,57.4h.23c8.09,0,11.6,6.78,11.6,13.42S936.22,86.1,928.06,86.33Z" />
      <path class="cls-5" d="M966.91,120.87a1.14,1.14,0,0,0-1.15,1.15v35a1.15,1.15,0,1,0,2.3,0V122A1.15,1.15,0,0,0,966.91,120.87Z" />
      <path class="cls-5" d="M966.91,102.74a1.14,1.14,0,0,0-1.15,1.15V111a1.15,1.15,0,1,0,2.3,0v-7.09A1.15,1.15,0,0,0,966.91,102.74Z" />
      <path class="cls-5" d="M834.14,93.85A1.14,1.14,0,0,0,833,95v21.06a1.15,1.15,0,1,0,2.29,0V95A1.14,1.14,0,0,0,834.14,93.85Z" />
    </g>
</svg>