<?xml version="1.0" standalone="no"?>
<svg version="1.0" xmlns="http://www.w3.org/2000/svg" width="596.000000pt" height="596.000000pt" viewBox="0 0 596.000000 596.000000" preserveAspectRatio="xMidYMid meet">
    <g transform="matrix(1,0,0,1,71.18699645996094,325.1499938964844)" opacity="1" style="display: block;">
        <g opacity="1" transform="matrix(1,0,0,1,0,0)">
            <path fill="url(#__lottie_element_9)" fill-opacity="1" d=" M25.746999740600586,-27.871000289916992 C25.746999740600586,-27.871000289916992 -0.003000000026077032,-27.871000289916992 -0.003000000026077032,-27.871000289916992 C-0.003000000026077032,-27.871000289916992 -25.743000030517578,-27.871000289916992 -25.743000030517578,-27.871000289916992 C-25.743000030517578,-27.871000289916992 -31.493000030517578,-27.871000289916992 -31.493000030517578,-27.871000289916992 C-31.493000030517578,-27.871000289916992 -31.493000030517578,-21.680999755859375 -31.493000030517578,-21.680999755859375 C-31.493000030517578,-21.680999755859375 -31.493000030517578,-3.0910000801086426 -31.493000030517578,-3.0910000801086426 C-31.493000030517578,-3.0910000801086426 -8.67300033569336,19.298999786376953 -8.67300033569336,19.298999786376953 C-8.67300033569336,19.298999786376953 -8.67300033569336,10.458999633789062 -8.67300033569336,10.458999633789062 C-8.67300033569336,10.458999633789062 -8.67300033569336,-10.081000328063965 -8.67300033569336,-10.081000328063965 C-8.67300033569336,-10.081000328063965 -8.67300033569336,-16.270999908447266 -8.67300033569336,-16.270999908447266 C-8.67300033569336,-16.270999908447266 -19.663000106811523,-16.270999908447266 -19.663000106811523,-16.270999908447266 C-19.663000106811523,-16.270999908447266 -19.663000106811523,-10.081000328063965 -19.663000106811523,-10.081000328063965 C-19.663000106811523,-10.081000328063965 -15.003000259399414,-10.081000328063965 -15.003000259399414,-10.081000328063965 C-15.003000259399414,-10.081000328063965 -15.003000259399414,4.2789998054504395 -15.003000259399414,4.2789998054504395 C-15.003000259399414,4.2789998054504395 -25.163000106811523,-5.660999774932861 -25.163000106811523,-5.660999774932861 C-25.163000106811523,-5.660999774932861 -25.163000106811523,-21.680999755859375 -25.163000106811523,-21.680999755859375 C-25.163000106811523,-21.680999755859375 -3.1630001068115234,-21.680999755859375 -3.1630001068115234,-21.680999755859375 C-3.1630001068115234,-21.680999755859375 -3.1630001068115234,24.768999099731445 -3.1630001068115234,24.768999099731445 C-3.1630001068115234,24.768999099731445 -0.003000000026077032,27.868999481201172 -0.003000000026077032,27.868999481201172 C-0.003000000026077032,27.868999481201172 3.1670000553131104,24.768999099731445 3.1670000553131104,24.768999099731445 C3.1670000553131104,24.768999099731445 3.1670000553131104,-21.680999755859375 3.1670000553131104,-21.680999755859375 C3.1670000553131104,-21.680999755859375 25.16699981689453,-21.680999755859375 25.16699981689453,-21.680999755859375 C25.16699981689453,-21.680999755859375 25.16699981689453,-5.660999774932861 25.16699981689453,-5.660999774932861 C25.16699981689453,-5.660999774932861 15.006999969482422,4.2789998054504395 15.006999969482422,4.2789998054504395 C15.006999969482422,4.2789998054504395 15.006999969482422,-10.081000328063965 15.006999969482422,-10.081000328063965 C15.006999969482422,-10.081000328063965 19.66699981689453,-10.081000328063965 19.66699981689453,-10.081000328063965 C19.66699981689453,-10.081000328063965 19.66699981689453,-16.270999908447266 19.66699981689453,-16.270999908447266 C19.66699981689453,-16.270999908447266 8.677000045776367,-16.270999908447266 8.677000045776367,-16.270999908447266 C8.677000045776367,-16.270999908447266 8.677000045776367,-10.081000328063965 8.677000045776367,-10.081000328063965 C8.677000045776367,-10.081000328063965 8.677000045776367,10.458999633789062 8.677000045776367,10.458999633789062 C8.677000045776367,10.458999633789062 8.677000045776367,19.298999786376953 8.677000045776367,19.298999786376953 C8.677000045776367,19.298999786376953 31.496999740600586,-3.0910000801086426 31.496999740600586,-3.0910000801086426 C31.496999740600586,-3.0910000801086426 31.496999740600586,-21.680999755859375 31.496999740600586,-21.680999755859375 C31.496999740600586,-21.680999755859375 31.496999740600586,-27.871000289916992 31.496999740600586,-27.871000289916992 C31.496999740600586,-27.871000289916992 25.746999740600586,-27.871000289916992 25.746999740600586,-27.871000289916992z"></path>
        </g>
    </g>
</svg>